<svg id="visual" viewBox="0 0 900 600" width="900" height="600" xmlns="http://www.w3.org/2000/svg" xmlns:xlink="http://www.w3.org/1999/xlink" version="1.1"><rect x="0" y="0" width="900" height="600" fill="#FFFFFF"></rect><defs><linearGradient id="grad1_0" x1="33.3%" y1="100%" x2="100%" y2="0%"><stop offset="20%" stop-color="#ffffff" stop-opacity="1"></stop><stop offset="80%" stop-color="#ffffff" stop-opacity="1"></stop></linearGradient></defs><defs><linearGradient id="grad2_0" x1="0%" y1="100%" x2="66.7%" y2="0%"><stop offset="20%" stop-color="#ffffff" stop-opacity="1"></stop><stop offset="80%" stop-color="#ffffff" stop-opacity="1"></stop></linearGradient></defs><g transform="translate(900, 600)"><path d="M-378.6 0C-340.2 -35.5 -301.7 -71 -289.2 -119.8C-276.6 -168.5 -289.9 -230.5 -267.7 -267.7C-245.5 -304.9 -187.9 -317.3 -137.4 -331.7C-86.9 -346 -43.4 -362.3 0 -378.6L0 0Z" fill="#fcc190"></path></g><g transform="translate(0, 0)"><path d="M378.6 0C377 53.3 375.3 106.7 349.8 144.9C324.2 183.1 274.7 206.2 237.6 237.6C200.5 269 175.7 308.6 138.1 333.5C100.6 358.4 50.3 368.5 0 378.6L0 0Z" fill="#fcc190"></path></g></svg>