<svg id="visual" viewBox="0 0 900 600" width="900" height="600" xmlns="http://www.w3.org/2000/svg" xmlns:xlink="http://www.w3.org/1999/xlink" version="1.1"><rect x="0" y="0" width="900" height="600" fill="#FFFFFF"></rect><defs><linearGradient id="grad1_0" x1="33.3%" y1="0%" x2="100%" y2="100%"><stop offset="20%" stop-color="#ffffff" stop-opacity="1"></stop><stop offset="80%" stop-color="#ffffff" stop-opacity="1"></stop></linearGradient></defs><defs><linearGradient id="grad2_0" x1="0%" y1="0%" x2="66.7%" y2="100%"><stop offset="20%" stop-color="#ffffff" stop-opacity="1"></stop><stop offset="80%" stop-color="#ffffff" stop-opacity="1"></stop></linearGradient></defs><g transform="translate(900, 0)"><path d="M0 459.7C-60.7 454.9 -121.5 450.1 -175.9 424.7C-230.4 399.4 -278.5 353.5 -302.6 302.6C-326.8 251.8 -327 195.9 -349.2 144.7C-371.4 93.4 -415.6 46.7 -459.7 0L0 0Z" fill="#83c3f7"></path></g><g transform="translate(0, 600)"><path d="M0 -459.7C50 -428.6 100.1 -397.5 157.3 -379.7C214.5 -361.9 278.9 -357.5 325.1 -325.1C371.2 -292.6 399.1 -232.2 418.5 -173.4C437.9 -114.5 448.8 -57.3 459.7 0L0 0Z" fill="#83c3f7"></path></g></svg>