<svg id="visual" viewBox="0 0 900 600" width="900" height="600" xmlns="http://www.w3.org/2000/svg" xmlns:xlink="http://www.w3.org/1999/xlink" version="1.1"><rect x="0" y="0" width="900" height="600" fill="#FFFFFF"></rect><path d="M0 480L21.5 484C43 488 86 496 128.8 485.8C171.7 475.7 214.3 447.3 257.2 432.2C300 417 343 415 385.8 428.5C428.7 442 471.3 471 514.2 469C557 467 600 434 642.8 426C685.7 418 728.3 435 771.2 437.5C814 440 857 428 878.5 422L900 416L900 601L878.5 601C857 601 814 601 771.2 601C728.3 601 685.7 601 642.8 601C600 601 557 601 514.2 601C471.3 601 428.7 601 385.8 601C343 601 300 601 257.2 601C214.3 601 171.7 601 128.8 601C86 601 43 601 21.5 601L0 601Z" fill="#E30B5C" stroke-linecap="round" stroke-linejoin="miter"></path></svg>