<svg id="visual" viewBox="0 0 900 600" width="900" height="600" xmlns="http://www.w3.org/2000/svg" xmlns:xlink="http://www.w3.org/1999/xlink" version="1.1"><rect x="0" y="0" width="900" height="600" fill="#ffffff"></rect><path d="M0 155L129 92L257 85L386 103L514 127L643 161L771 80L900 136L900 0L771 0L643 0L514 0L386 0L257 0L129 0L0 0Z" fill="#ff0066"></path><path d="M0 72L129 78L257 114L386 75L514 90L643 119L771 61L900 113L900 0L771 0L643 0L514 0L386 0L257 0L129 0L0 0Z" fill="#ff2f52"></path><path d="M0 49L129 68L257 83L386 43L514 51L643 90L771 62L900 91L900 0L771 0L643 0L514 0L386 0L257 0L129 0L0 0Z" fill="#ff4a3e"></path><path d="M0 66L129 53L257 29L386 42L514 59L643 52L771 37L900 61L900 0L771 0L643 0L514 0L386 0L257 0L129 0L0 0Z" fill="#fd612a"></path><path d="M0 35L129 35L257 32L386 33L514 48L643 15L771 33L900 11L900 0L771 0L643 0L514 0L386 0L257 0L129 0L0 0Z" fill="#f7770f"></path></svg>