<svg id="visual" viewBox="0 0 900 600" width="900" height="600" xmlns="http://www.w3.org/2000/svg" xmlns:xlink="http://www.w3.org/1999/xlink" version="1.1"><rect x="0" y="0" width="900" height="600" fill="#25435a"></rect><path d="M0 401L21.5 398.7C43 396.3 86 391.7 128.8 383.2C171.7 374.7 214.3 362.3 257.2 358.2C300 354 343 358 385.8 370.2C428.7 382.3 471.3 402.7 514.2 417C557 431.3 600 439.7 642.8 443.5C685.7 447.3 728.3 446.7 771.2 442.8C814 439 857 432 878.5 428.5L900 425L900 601L878.5 601C857 601 814 601 771.2 601C728.3 601 685.7 601 642.8 601C600 601 557 601 514.2 601C471.3 601 428.7 601 385.8 601C343 601 300 601 257.2 601C214.3 601 171.7 601 128.8 601C86 601 43 601 21.5 601L0 601Z" fill="#009473"></path><path d="M0 421L21.5 429C43 437 86 453 128.8 458C171.7 463 214.3 457 257.2 444.8C300 432.7 343 414.3 385.8 417C428.7 419.7 471.3 443.3 514.2 444.5C557 445.7 600 424.3 642.8 421.3C685.7 418.3 728.3 433.7 771.2 445.8C814 458 857 467 878.5 471.5L900 476L900 601L878.5 601C857 601 814 601 771.2 601C728.3 601 685.7 601 642.8 601C600 601 557 601 514.2 601C471.3 601 428.7 601 385.8 601C343 601 300 601 257.2 601C214.3 601 171.7 601 128.8 601C86 601 43 601 21.5 601L0 601Z" fill="#139d7d"></path><path d="M0 489L21.5 491.7C43 494.3 86 499.7 128.8 496C171.7 492.3 214.3 479.7 257.2 475.8C300 472 343 477 385.8 478.2C428.7 479.3 471.3 476.7 514.2 472.8C557 469 600 464 642.8 467.2C685.7 470.3 728.3 481.7 771.2 478.5C814 475.3 857 457.7 878.5 448.8L900 440L900 601L878.5 601C857 601 814 601 771.2 601C728.3 601 685.7 601 642.8 601C600 601 557 601 514.2 601C471.3 601 428.7 601 385.8 601C343 601 300 601 257.2 601C214.3 601 171.7 601 128.8 601C86 601 43 601 21.5 601L0 601Z" fill="#20a687"></path><path d="M0 517L21.5 514.7C43 512.3 86 507.7 128.8 509.3C171.7 511 214.3 519 257.2 518.5C300 518 343 509 385.8 506.8C428.7 504.7 471.3 509.3 514.2 509.8C557 510.3 600 506.7 642.8 508.5C685.7 510.3 728.3 517.7 771.2 515C814 512.3 857 499.7 878.5 493.3L900 487L900 601L878.5 601C857 601 814 601 771.2 601C728.3 601 685.7 601 642.8 601C600 601 557 601 514.2 601C471.3 601 428.7 601 385.8 601C343 601 300 601 257.2 601C214.3 601 171.7 601 128.8 601C86 601 43 601 21.5 601L0 601Z" fill="#2aaf91"></path><path d="M0 527L21.5 526.7C43 526.3 86 525.7 128.8 527.7C171.7 529.7 214.3 534.3 257.2 540.7C300 547 343 555 385.8 560.5C428.7 566 471.3 569 514.2 566.7C557 564.3 600 556.7 642.8 555.3C685.7 554 728.3 559 771.2 559.3C814 559.7 857 555.3 878.5 553.2L900 551L900 601L878.5 601C857 601 814 601 771.2 601C728.3 601 685.7 601 642.8 601C600 601 557 601 514.2 601C471.3 601 428.7 601 385.8 601C343 601 300 601 257.2 601C214.3 601 171.7 601 128.8 601C86 601 43 601 21.5 601L0 601Z" fill="#34b89b"></path></svg>