<svg id="visual" viewBox="0 0 900 600" width="900" height="600" xmlns="http://www.w3.org/2000/svg" xmlns:xlink="http://www.w3.org/1999/xlink" version="1.1"><path d="M0 97L82 97L82 139L164 139L164 145L245 145L245 109L327 109L327 115L409 115L409 127L491 127L491 121L573 121L573 79L655 79L655 121L736 121L736 115L818 115L818 61L900 61L900 145L900 0L900 0L818 0L818 0L736 0L736 0L655 0L655 0L573 0L573 0L491 0L491 0L409 0L409 0L327 0L327 0L245 0L245 0L164 0L164 0L82 0L82 0L0 0Z" fill="#fdda0d"></path><path d="M0 343L82 343L82 241L164 241L164 241L245 241L245 211L327 211L327 205L409 205L409 403L491 403L491 205L573 205L573 301L655 301L655 235L736 235L736 361L818 361L818 265L900 265L900 277L900 143L900 59L818 59L818 113L736 113L736 119L655 119L655 77L573 77L573 119L491 119L491 125L409 125L409 113L327 113L327 107L245 107L245 143L164 143L164 137L82 137L82 95L0 95Z" fill="#f7b800"></path><path d="M0 391L82 391L82 361L164 361L164 331L245 331L245 253L327 253L327 289L409 289L409 451L491 451L491 265L573 265L573 409L655 409L655 325L736 325L736 415L818 415L818 379L900 379L900 385L900 275L900 263L818 263L818 359L736 359L736 233L655 233L655 299L573 299L573 203L491 203L491 401L409 401L409 203L327 203L327 209L245 209L245 239L164 239L164 239L82 239L82 341L0 341Z" fill="#ec9700"></path><path d="M0 547L82 547L82 523L164 523L164 553L245 553L245 535L327 535L327 553L409 553L409 553L491 553L491 511L573 511L573 559L655 559L655 541L736 541L736 505L818 505L818 535L900 535L900 559L900 383L900 377L818 377L818 413L736 413L736 323L655 323L655 407L573 407L573 263L491 263L491 449L409 449L409 287L327 287L327 251L245 251L245 329L164 329L164 359L82 359L82 389L0 389Z" fill="#dd7600"></path><path d="M0 601L82 601L82 601L164 601L164 601L245 601L245 601L327 601L327 601L409 601L409 601L491 601L491 601L573 601L573 601L655 601L655 601L736 601L736 601L818 601L818 601L900 601L900 601L900 557L900 533L818 533L818 503L736 503L736 539L655 539L655 557L573 557L573 509L491 509L491 551L409 551L409 551L327 551L327 533L245 533L245 551L164 551L164 521L82 521L82 545L0 545Z" fill="#cc5500"></path></svg>