<svg id="visual" viewBox="0 0 900 600" width="900" height="600" xmlns="http://www.w3.org/2000/svg" xmlns:xlink="http://www.w3.org/1999/xlink" version="1.1"><path d="M0 103L13.7 95C27.3 87 54.7 71 82 69C109.3 67 136.7 79 163.8 89C191 99 218 107 245.2 111C272.3 115 299.7 115 327 103C354.3 91 381.7 67 409 57C436.3 47 463.7 51 491 54C518.3 57 545.7 59 573 60C600.3 61 627.7 61 654.8 66C682 71 709 81 736.2 78C763.3 75 790.7 59 818 51C845.3 43 872.7 43 886.3 43L900 43L900 0L886.3 0C872.7 0 845.3 0 818 0C790.7 0 763.3 0 736.2 0C709 0 682 0 654.8 0C627.7 0 600.3 0 573 0C545.7 0 518.3 0 491 0C463.7 0 436.3 0 409 0C381.7 0 354.3 0 327 0C299.7 0 272.3 0 245.2 0C218 0 191 0 163.8 0C136.7 0 109.3 0 82 0C54.7 0 27.3 0 13.7 0L0 0Z" fill="#66c9b1"></path><path d="M0 355L13.7 343C27.3 331 54.7 307 82 301C109.3 295 136.7 307 163.8 322C191 337 218 355 245.2 344C272.3 333 299.7 293 327 269C354.3 245 381.7 237 409 237C436.3 237 463.7 245 491 234C518.3 223 545.7 193 573 212C600.3 231 627.7 299 654.8 312C682 325 709 283 736.2 270C763.3 257 790.7 273 818 259C845.3 245 872.7 201 886.3 179L900 157L900 41L886.3 41C872.7 41 845.3 41 818 49C790.7 57 763.3 73 736.2 76C709 79 682 69 654.8 64C627.7 59 600.3 59 573 58C545.7 57 518.3 55 491 52C463.7 49 436.3 45 409 55C381.7 65 354.3 89 327 101C299.7 113 272.3 113 245.2 109C218 105 191 97 163.8 87C136.7 77 109.3 65 82 67C54.7 69 27.3 85 13.7 93L0 101Z" fill="#4abea2"></path><path d="M0 457L13.7 451C27.3 445 54.7 433 82 433C109.3 433 136.7 445 163.8 454C191 463 218 469 245.2 457C272.3 445 299.7 415 327 390C354.3 365 381.7 345 409 350C436.3 355 463.7 385 491 380C518.3 375 545.7 335 573 343C600.3 351 627.7 407 654.8 408C682 409 709 355 736.2 341C763.3 327 790.7 353 818 342C845.3 331 872.7 283 886.3 259L900 235L900 155L886.3 177C872.7 199 845.3 243 818 257C790.7 271 763.3 255 736.2 268C709 281 682 323 654.8 310C627.7 297 600.3 229 573 210C545.7 191 518.3 221 491 232C463.7 243 436.3 235 409 235C381.7 235 354.3 243 327 267C299.7 291 272.3 331 245.2 342C218 353 191 335 163.8 320C136.7 305 109.3 293 82 299C54.7 305 27.3 329 13.7 341L0 353Z" fill="#23b393"></path><path d="M0 493L13.7 493C27.3 493 54.7 493 82 499C109.3 505 136.7 517 163.8 520C191 523 218 517 245.2 501C272.3 485 299.7 459 327 444C354.3 429 381.7 425 409 437C436.3 449 463.7 477 491 473C518.3 469 545.7 433 573 433C600.3 433 627.7 469 654.8 466C682 463 709 421 736.2 408C763.3 395 790.7 411 818 396C845.3 381 872.7 335 886.3 312L900 289L900 233L886.3 257C872.7 281 845.3 329 818 340C790.7 351 763.3 325 736.2 339C709 353 682 407 654.8 406C627.7 405 600.3 349 573 341C545.7 333 518.3 373 491 378C463.7 383 436.3 353 409 348C381.7 343 354.3 363 327 388C299.7 413 272.3 443 245.2 455C218 467 191 461 163.8 452C136.7 443 109.3 431 82 431C54.7 431 27.3 443 13.7 449L0 455Z" fill="#1e9b7f"></path><path d="M0 601L13.7 601C27.3 601 54.7 601 82 601C109.3 601 136.7 601 163.8 601C191 601 218 601 245.2 601C272.3 601 299.7 601 327 601C354.3 601 381.7 601 409 601C436.3 601 463.7 601 491 601C518.3 601 545.7 601 573 601C600.3 601 627.7 601 654.8 601C682 601 709 601 736.2 601C763.3 601 790.7 601 818 601C845.3 601 872.7 601 886.3 601L900 601L900 287L886.3 310C872.7 333 845.3 379 818 394C790.7 409 763.3 393 736.2 406C709 419 682 461 654.8 464C627.7 467 600.3 431 573 431C545.7 431 518.3 467 491 471C463.7 475 436.3 447 409 435C381.7 423 354.3 427 327 442C299.7 457 272.3 483 245.2 499C218 515 191 521 163.8 518C136.7 515 109.3 503 82 497C54.7 491 27.3 491 13.7 491L0 491Z" fill="#1a836c"></path></svg>