<svg id="visual" viewBox="0 0 900 600" width="900" height="600" xmlns="http://www.w3.org/2000/svg" xmlns:xlink="http://www.w3.org/1999/xlink" version="1.1"><path d="M0 61L13.7 59C27.3 57 54.7 53 82 57C109.3 61 136.7 73 163.8 74C191 75 218 65 245.2 65C272.3 65 299.7 75 327 79C354.3 83 381.7 81 409 82C436.3 83 463.7 87 491 90C518.3 93 545.7 95 573 87C600.3 79 627.7 61 654.8 57C682 53 709 63 736.2 70C763.3 77 790.7 81 818 77C845.3 73 872.7 61 886.3 55L900 49L900 0L886.3 0C872.7 0 845.3 0 818 0C790.7 0 763.3 0 736.2 0C709 0 682 0 654.8 0C627.7 0 600.3 0 573 0C545.7 0 518.3 0 491 0C463.7 0 436.3 0 409 0C381.7 0 354.3 0 327 0C299.7 0 272.3 0 245.2 0C218 0 191 0 163.8 0C136.7 0 109.3 0 82 0C54.7 0 27.3 0 13.7 0L0 0Z" fill="#ff7b74"></path><path d="M0 145L13.7 150C27.3 155 54.7 165 82 171C109.3 177 136.7 179 163.8 168C191 157 218 133 245.2 136C272.3 139 299.7 169 327 176C354.3 183 381.7 167 409 162C436.3 157 463.7 163 491 163C518.3 163 545.7 157 573 148C600.3 139 627.7 127 654.8 123C682 119 709 123 736.2 136C763.3 149 790.7 171 818 170C845.3 169 872.7 145 886.3 133L900 121L900 47L886.3 53C872.7 59 845.3 71 818 75C790.7 79 763.3 75 736.2 68C709 61 682 51 654.8 55C627.7 59 600.3 77 573 85C545.7 93 518.3 91 491 88C463.7 85 436.3 81 409 80C381.7 79 354.3 81 327 77C299.7 73 272.3 63 245.2 63C218 63 191 73 163.8 72C136.7 71 109.3 59 82 55C54.7 51 27.3 55 13.7 57L0 59Z" fill="#f95a53"></path><path d="M0 283L13.7 300C27.3 317 54.7 351 82 355C109.3 359 136.7 333 163.8 333C191 333 218 359 245.2 363C272.3 367 299.7 349 327 340C354.3 331 381.7 331 409 335C436.3 339 463.7 347 491 348C518.3 349 545.7 343 573 322C600.3 301 627.7 265 654.8 255C682 245 709 261 736.2 277C763.3 293 790.7 309 818 319C845.3 329 872.7 333 886.3 335L900 337L900 119L886.3 131C872.7 143 845.3 167 818 168C790.7 169 763.3 147 736.2 134C709 121 682 117 654.8 121C627.7 125 600.3 137 573 146C545.7 155 518.3 161 491 161C463.7 161 436.3 155 409 160C381.7 165 354.3 181 327 174C299.7 167 272.3 137 245.2 134C218 131 191 155 163.8 166C136.7 177 109.3 175 82 169C54.7 163 27.3 153 13.7 148L0 143Z" fill="#f13232"></path><path d="M0 439L13.7 450C27.3 461 54.7 483 82 480C109.3 477 136.7 449 163.8 448C191 447 218 473 245.2 481C272.3 489 299.7 479 327 473C354.3 467 381.7 465 409 468C436.3 471 463.7 479 491 476C518.3 473 545.7 459 573 445C600.3 431 627.7 417 654.8 400C682 383 709 363 736.2 360C763.3 357 790.7 371 818 386C845.3 401 872.7 417 886.3 425L900 433L900 335L886.3 333C872.7 331 845.3 327 818 317C790.7 307 763.3 291 736.2 275C709 259 682 243 654.8 253C627.7 263 600.3 299 573 320C545.7 341 518.3 347 491 346C463.7 345 436.3 337 409 333C381.7 329 354.3 329 327 338C299.7 347 272.3 365 245.2 361C218 357 191 331 163.8 331C136.7 331 109.3 357 82 353C54.7 349 27.3 315 13.7 298L0 281Z" fill="#d2292c"></path><path d="M0 601L13.7 601C27.3 601 54.7 601 82 601C109.3 601 136.7 601 163.8 601C191 601 218 601 245.2 601C272.3 601 299.7 601 327 601C354.3 601 381.7 601 409 601C436.3 601 463.7 601 491 601C518.3 601 545.7 601 573 601C600.3 601 627.7 601 654.8 601C682 601 709 601 736.2 601C763.3 601 790.7 601 818 601C845.3 601 872.7 601 886.3 601L900 601L900 431L886.3 423C872.7 415 845.3 399 818 384C790.7 369 763.3 355 736.2 358C709 361 682 381 654.8 398C627.7 415 600.3 429 573 443C545.7 457 518.3 471 491 474C463.7 477 436.3 469 409 466C381.7 463 354.3 465 327 471C299.7 477 272.3 487 245.2 479C218 471 191 445 163.8 446C136.7 447 109.3 475 82 478C54.7 481 27.3 459 13.7 448L0 437Z" fill="#b42025"></path></svg>