<svg id="visual" viewBox="0 0 900 600" width="900" height="600" xmlns="http://www.w3.org/2000/svg" xmlns:xlink="http://www.w3.org/1999/xlink" version="1.1"><rect x="0" y="0" width="900" height="600" fill="#FFFFFF"></rect><path d="M0 451L21.5 460.5C43 470 86 489 128.8 495.8C171.7 502.7 214.3 497.3 257.2 490.5C300 483.7 343 475.3 385.8 477.5C428.7 479.7 471.3 492.3 514.2 502.2C557 512 600 519 642.8 509.2C685.7 499.3 728.3 472.7 771.2 466.7C814 460.7 857 475.3 878.5 482.7L900 490L900 601L878.5 601C857 601 814 601 771.2 601C728.3 601 685.7 601 642.8 601C600 601 557 601 514.2 601C471.3 601 428.7 601 385.8 601C343 601 300 601 257.2 601C214.3 601 171.7 601 128.8 601C86 601 43 601 21.5 601L0 601Z" fill="#FF0066" stroke-linecap="round" stroke-linejoin="miter"></path></svg>