<svg id="visual" viewBox="0 0 900 600" width="900" height="600" xmlns="http://www.w3.org/2000/svg" xmlns:xlink="http://www.w3.org/1999/xlink" version="1.1"><rect x="0" y="0" width="900" height="600" fill="#FFFFFF"></rect><path d="M0 502L21.5 504C43 506 86 510 128.8 499.8C171.7 489.7 214.3 465.3 257.2 456.2C300 447 343 453 385.8 465.2C428.7 477.3 471.3 495.7 514.2 501.8C557 508 600 502 642.8 491.2C685.7 480.3 728.3 464.7 771.2 454.8C814 445 857 441 878.5 439L900 437L900 601L878.5 601C857 601 814 601 771.2 601C728.3 601 685.7 601 642.8 601C600 601 557 601 514.2 601C471.3 601 428.7 601 385.8 601C343 601 300 601 257.2 601C214.3 601 171.7 601 128.8 601C86 601 43 601 21.5 601L0 601Z" fill="#FCAF3C" stroke-linecap="round" stroke-linejoin="miter"></path></svg>