<svg id="visual" viewBox="0 0 900 600" width="900" height="600" xmlns="http://www.w3.org/2000/svg" xmlns:xlink="http://www.w3.org/1999/xlink" version="1.1"><rect x="0" y="0" width="900" height="600" fill="#FFFFFF"></rect><path d="M0 534L21.5 533.8C43 533.7 86 533.3 128.8 529.7C171.7 526 214.3 519 257.2 517.8C300 516.7 343 521.3 385.8 525.2C428.7 529 471.3 532 514.2 525C557 518 600 501 642.8 498C685.7 495 728.3 506 771.2 510.7C814 515.3 857 513.7 878.5 512.8L900 512L900 601L878.5 601C857 601 814 601 771.2 601C728.3 601 685.7 601 642.8 601C600 601 557 601 514.2 601C471.3 601 428.7 601 385.8 601C343 601 300 601 257.2 601C214.3 601 171.7 601 128.8 601C86 601 43 601 21.5 601L0 601Z" fill="#fc77ac" stroke-linecap="round" stroke-linejoin="miter"></path></svg>