<svg id="visual" viewBox="0 0 900 600" width="900" height="600" xmlns="http://www.w3.org/2000/svg" xmlns:xlink="http://www.w3.org/1999/xlink" version="1.1"><rect x="0" y="0" width="900" height="600" fill="#FFFFFF"></rect><path d="M0 517L21.5 502.3C43 487.7 86 458.3 128.8 435.2C171.7 412 214.3 395 257.2 410.8C300 426.7 343 475.3 385.8 483.3C428.7 491.3 471.3 458.7 514.2 441.3C557 424 600 422 642.8 425C685.7 428 728.3 436 771.2 448C814 460 857 476 878.5 484L900 492L900 601L878.5 601C857 601 814 601 771.2 601C728.3 601 685.7 601 642.8 601C600 601 557 601 514.2 601C471.3 601 428.7 601 385.8 601C343 601 300 601 257.2 601C214.3 601 171.7 601 128.8 601C86 601 43 601 21.5 601L0 601Z" fill="#009473" stroke-linecap="round" stroke-linejoin="miter"></path></svg>